<svg width="116" height="79" viewBox="0 0 116 79" fill="none" xmlns="http://www.w3.org/2000/svg">
<g clip-path="url(#clip0_331_3418)">
<path d="M105.039 14.8013L102.403 13.6314C102.047 13.463 101.712 13.6925 101.81 14.1159C101.891 14.7547 101.89 15.2728 101.508 16.1381C97.7034 27.2739 93.497 33.67 87.9708 24.5972C87.9685 24.5885 87.9604 24.5814 87.9552 24.5735C80.0116 13.9899 66.1472 10.3146 51.3534 20.9711C42.9557 27.4079 42.4503 36.6331 44.6189 44.7263C44.9347 45.9628 44.8013 46.2404 44.3459 46.0337C33.8826 41.4285 29.1461 33.5086 30.5243 21.3142C30.5386 20.8235 30.6576 20.3419 30.6238 19.8454C30.6044 19.5529 30.4625 19.4979 30.2289 19.6101C30.1186 19.6614 30.0294 19.7566 29.9319 19.8324C21.9932 25.4826 8.597 51.6213 10.1297 61.9595C10.0973 62.1047 10.2148 62.1383 10.3153 62.1083C10.4295 62.0715 10.5827 62.018 10.6298 61.9279C18.1548 54.5371 42.4007 55.7998 48.8036 58.5499C49.2633 58.7493 49.7238 58.9515 50.1904 59.1304C83.2666 71.6818 89.6784 51.8959 92.3125 43.9021C92.8402 42.6195 93.3826 41.3453 93.8871 40.0564C97.4282 31.2583 100.786 23.1202 103.608 16.9028C103.611 16.8926 103.618 16.8816 103.624 16.8706C103.968 16.2791 104.433 15.7917 104.991 15.3878C105.248 15.201 105.273 14.9122 105.039 14.8013ZM64.0631 30.0016C64.0631 30.0016 64.0729 29.9803 64.0764 29.9701C64.4847 28.89 65.2166 28.5078 66.2127 29.3666C67.4807 30.4069 69.1279 31.265 71.005 32.0087C72.6582 32.7039 72.2964 33.0552 71.626 34.1528L70.9336 35.4113C70.4372 36.3134 69.3026 36.6392 68.4034 36.142L64.1099 33.7757C63.2077 33.2793 62.882 32.1447 63.3792 31.2454L64.0631 30.0016ZM47.7233 39.5527C46.4851 31.2165 50.0667 27.1989 54.5358 24.2368C54.9361 23.9714 55.2431 23.9946 55.3902 24.532C56.1216 26.4976 58.7367 27.7042 62.0851 28.615C63.047 28.9527 62.037 30.3801 61.2975 31.2543C61.127 31.4861 60.8883 31.5097 60.6788 31.3643C59.572 30.8793 58.4745 30.8229 57.3859 31.3782C56.4798 31.897 55.9198 32.689 55.6937 33.6738C55.3226 35.2866 56.1397 36.8199 57.6468 37.5139C57.8343 37.6002 58.0665 37.6682 58.1106 37.9138C58.1193 37.958 58.1078 38.0076 58.0911 38.0493C57.9441 38.4267 57.8045 38.8083 57.5673 39.1386C57.5063 39.2232 57.4023 39.2634 57.2996 39.2506C56.9829 39.2145 56.7195 39.0184 56.4355 38.896C52.1868 36.9518 50.221 38.4461 48.3006 40.0058C48.026 40.1849 47.8275 40.5668 47.7254 39.549L47.7233 39.5527ZM63.8176 44.4789C64.031 44.6119 64.0051 44.9393 63.7397 45.4611L63.0057 47.0161C62.9177 47.2661 62.6993 47.3308 62.4498 47.1403C61.5294 46.5062 59.7615 45.7766 58.1051 45.0574C57.6483 44.9038 57.3379 44.6366 57.6814 43.9739C57.9161 43.4148 58.1509 42.8557 58.3856 42.2966C58.9862 40.8921 61.4407 43.0038 63.8147 44.4796L63.8176 44.4789ZM59.7774 55.4885C59.7774 55.4885 59.7635 55.483 59.7598 55.4808C58.3443 54.8739 58.2072 54.5013 58.5355 54.2335C59.2631 53.6385 59.634 52.8816 59.4824 51.7717C59.1148 49.0573 68.9696 47.5952 69.9708 51.3896C71.8117 58.3641 68.4972 58.6909 59.7774 55.4885ZM72.7238 47.5321C72.1176 46.6587 71.3022 45.7917 70.6964 46.0192C69.783 46.3601 69.2916 45.6606 69.0124 44.6996C68.5847 43.2884 69.709 43.2135 70.9721 42.9278C72.3558 42.5477 73.4901 41.2948 73.6026 39.8629C73.6689 39.0109 73.4154 38.1918 72.9388 37.4667C72.0252 36.2446 72.1252 35.3215 73.5983 34.8121C75.0026 34.4048 76.1745 35.4336 77.9497 35.7395C78.2132 35.7619 78.1528 35.9301 78.0566 36.1729C77.3124 38.0253 73.7841 49.1397 72.723 47.5292L72.7238 47.5321ZM72.5358 48.6245C72.878 49.184 73.174 49.2008 73.6019 49.2816C73.9679 49.351 74.1211 49.0432 74.2657 48.7843C74.4709 48.4161 74.671 48.0399 74.7942 47.6317C75.0005 47.0244 76.0621 48.0579 76.9362 48.5308C78.3905 49.2824 78.7164 49.9549 78.9602 49.6725C79.2232 49.3694 79.152 48.8954 79.3071 48.5251C79.4258 48.239 79.306 48.116 79.0205 48.0343C77.8135 47.6848 76.6079 47.3287 75.4008 46.9791C74.6729 46.7741 75.972 45.1638 76.4827 44.0376C76.9899 42.9559 76.6025 42.8178 76.9395 42.7678C77.1596 42.7212 77.1844 42.8138 77.2831 42.8928C78.3684 43.7371 79.6703 44.2442 80.735 45.1156C80.9023 45.2538 81.0234 45.243 81.0728 45.022C81.1605 44.6202 81.2846 44.2272 81.4938 43.8734C81.7029 43.5197 81.6796 43.4329 81.272 43.3002C80.7152 43.1206 80.1508 42.9586 79.5928 42.7856C78.9368 42.583 78.268 42.4366 77.6183 42.2107C77.4538 42.1524 77.3829 41.9574 77.4661 41.8049C77.5429 41.6633 77.6226 41.521 77.6892 41.376C78.1912 40.2863 78.6858 39.1924 79.1833 38.0977C79.3263 38.1338 79.4753 38.1342 79.5999 38.2404C80.5854 39.1176 81.8487 39.573 82.8633 40.4083C83.0387 40.5536 83.183 40.5366 83.2105 40.2687C83.2595 39.7687 83.4527 39.3324 83.8255 38.9875C83.9772 38.8476 83.9697 38.7504 83.757 38.674C82.6159 38.2696 81.4641 37.9177 80.2824 37.6512C80.0643 37.6011 79.8562 37.5422 79.7061 37.387C79.6211 37.3012 79.6181 37.1625 79.6766 37.0569C79.8368 36.7751 79.9648 36.4773 80.0833 36.1788C80.3105 35.6031 80.0596 35.1183 79.4651 34.9365C79.124 34.8325 78.7772 34.8231 78.545 35.1024C78.1485 35.5901 75.5112 33.0621 77.2714 33.2541C78.7297 33.2914 79.9818 32.8256 80.9801 31.7363C81.4629 31.2813 81.697 30.6851 81.9275 30.0869C81.9929 29.9143 82.0276 29.7313 82.0791 29.5532C82.2205 29.0625 82.2479 28.5744 82.0848 28.0816C81.9018 27.5259 81.8251 26.9386 81.5618 26.4075C81.528 26.3391 81.4704 26.2398 81.5637 26.1713C81.6311 26.1222 81.7119 26.1688 81.7721 26.2085C81.9073 26.2963 82.0843 26.3668 82.1563 26.4963C94.2564 40.8444 79.2766 56.5593 73.1948 56.7437C71.5773 56.7833 74.0933 53.442 71.9105 50.1566C71.4688 49.3879 70.8522 48.6724 70.1447 48.0805C69.9929 47.9537 69.9311 47.781 70.0075 47.6148C70.0895 47.4347 70.2923 47.3928 70.4598 47.4626C71.1981 47.7641 72.0873 47.7956 72.535 48.6216M92.5816 35.1961C92.4718 35.3651 92.363 35.5493 92.1971 35.1038C90.8593 31.6849 90.2452 29.5204 91.0568 29.8178L91.0626 29.8162C91.9999 30.421 93.1659 30.6637 94.7048 30.0529C95.4587 29.8571 93.9174 32.658 92.5816 35.1961Z" fill="white"/>
</g>
<defs>
<clipPath id="clip0_331_3418">
<rect width="104.006" height="53.1374" fill="white" transform="translate(0.864258 27.4657) rotate(-15)"/>
</clipPath>
</defs>
</svg>
