<svg width="106" height="106" viewBox="0 0 106 106" fill="none" xmlns="http://www.w3.org/2000/svg">
<g clip-path="url(#clip0_323_3411)">
<path d="M70.5047 79.4275C72.1955 77.7366 72.6629 77.2434 74.3667 75.5956C74.6058 75.3651 75.0711 75.1928 75.3856 75.2488C78.8147 75.8519 79.3855 75.5482 80.5486 72.6059C81.3155 73.545 82.0952 74.6823 83.0516 75.6473C89.1193 81.7667 95.2237 87.8452 101.472 94.0939L93.4122 102.154C92.2813 101.023 91.2496 99.9915 90.2178 98.9597C86.2071 94.9361 82.2115 90.9017 78.1642 86.9147C77.7506 86.5055 77.2186 86.1457 76.637 85.5642C76.8977 85.2346 76.9946 85.1334 77.5288 84.457C78.0737 84.709 78.5454 85.0041 79.0624 85.1463C80.708 85.5986 82.414 84.4484 82.8017 82.6735C83.2002 80.8534 82.2761 79.4297 80.4646 79.0699C78.5821 78.6995 77.1174 79.6989 76.8201 81.5599C76.5487 83.253 76.2026 84.2969 75.7819 84.6918C74.3452 83.2551 72.9193 81.7947 71.4459 80.386L70.5047 79.4275ZM75.4631 80.5476C75.6807 80.2439 75.9198 79.9875 75.8874 79.9466C75.2283 79.1238 74.5434 78.3182 73.8369 77.5385C73.7959 77.4975 73.391 77.6483 73.3673 77.7539C73.3178 77.993 73.307 78.3441 73.447 78.5013C74.0415 79.169 74.6985 79.7829 75.4631 80.5476Z" fill="white"/>
<path d="M32.3923 41.0695C33.1741 40.7443 33.956 40.4233 34.9124 40.027L47.4098 52.5244C47.0802 52.9013 46.7614 53.2632 46.2445 53.8491L37.7384 45.343C37.6027 45.4787 37.4606 45.6123 37.3249 45.748L45.8287 54.2519C45.6952 54.3897 45.566 54.5276 45.4324 54.6654C44.2585 53.4915 43.0673 52.3305 41.9128 51.1372C40.573 49.7501 39.3065 48.294 37.9237 46.9542C37.4562 46.4997 36.7304 46.3123 36.0045 45.944L37.9237 44.0248C37.8353 43.846 37.7492 43.6694 37.6609 43.4906C37.0685 43.734 36.4783 43.9752 35.6814 44.3027C34.6798 43.3011 33.564 42.1853 32.4439 41.0695C32.4396 41.0695 32.3944 41.0674 32.3944 41.0674L32.3923 41.0695Z" fill="white"/>
<path d="M76.2924 69.3232C74.5778 70.4002 74.076 71.7637 74.0997 73.5665C74.1104 74.3829 73.2768 75.2122 72.7362 76.2008L67.6485 71.1132C68.2365 70.8913 68.8181 70.4347 69.2575 70.5467C72.2257 71.2962 74.0286 69.6786 73.4664 66.6652C73.4384 66.5209 73.4104 66.3766 73.3048 65.8101C74.4271 67.1262 75.3059 68.1601 76.2945 69.3211L76.2924 69.3232Z" fill="white"/>
<path d="M67.0755 72.0178L71.7001 76.6424L69.7788 78.5638L65.1542 73.9392L67.0777 72.0157L67.0755 72.0178Z" fill="white"/>
<path d="M60.8807 65.9135L66.102 71.1347C65.5592 71.8627 65.0874 72.4895 64.5963 73.1487C63.2178 71.9252 61.878 70.7319 60.5081 69.5171C61.6368 68.3238 59.9179 68.0222 59.6056 67.1929L60.8829 65.9156L60.8807 65.9135Z" fill="white"/>
<path d="M94.1273 105.174L104.471 94.8306C104.531 94.8478 104.593 94.8629 104.652 94.8779C104.397 95.4294 104.273 96.1057 103.87 96.5085C101.016 99.3711 98.11 102.182 95.2064 104.995C94.9781 105.215 94.6378 105.323 94.3513 105.48L94.1294 105.172L94.1273 105.174Z" fill="white"/>
<path d="M78.4054 81.1981C79.6526 80.2611 80.6068 80.3106 81.1475 81.1571C81.4253 81.5944 81.2444 82.8739 80.917 83.0332C80.2772 83.337 79.2326 83.3736 78.6596 83.0246C78.2891 82.7963 78.455 81.687 78.4033 81.2002L78.4054 81.1981Z" fill="white"/>
<path d="M71.8703 69.3598C70.7136 69.0777 69.8542 69.1143 69.4837 68.705C69.1757 68.3625 69.2101 67.152 69.5117 66.9495C69.9899 66.6264 71.0496 66.5532 71.4352 66.8785C71.8251 67.208 71.6937 68.1536 71.8703 69.3598Z" fill="white"/>
<path d="M78.6187 71.0636C78.4442 72.1988 78.5627 73.1314 78.1901 73.4179C77.7636 73.7453 76.8955 73.4933 76.2192 73.4933C76.2386 72.8191 76.0404 72.0049 76.3527 71.5203C76.5789 71.1692 77.4857 71.2618 78.6166 71.0615L78.6187 71.0636Z" fill="white"/>
<path d="M57.4128 66.8483L48.5255 57.961C48.6095 57.877 48.6935 57.793 48.7754 57.7068L57.6842 66.6157C57.5938 66.6932 57.5033 66.7708 57.415 66.8504L57.4128 66.8483Z" fill="white"/>
<path d="M5.34268 5.78746C3.75951 7.34478 2.33573 9.05719 1.05412 10.468C2.14618 11.3016 3.07885 11.8638 3.83274 12.6091C13.3748 22.0737 22.8911 31.5641 32.4138 41.048C32.9222 40.4104 33.4348 39.7729 34.0401 39.0168L27.1086 32.0853C27.2098 31.9152 27.3089 31.7471 27.4101 31.577C27.8582 31.8182 28.3923 31.9733 28.7413 32.3179C32.7455 36.2791 36.7239 40.2704 40.7088 44.2553C43.2095 46.756 45.7103 49.2568 48.2111 51.7576C48.3812 51.7554 48.5471 51.7533 48.7172 51.7511C48.7969 51.0769 48.9369 50.3984 48.9434 49.7242C48.9542 48.5374 49.5767 47.7986 50.617 47.469C51.5282 47.1782 52.6526 48.0484 52.8141 49.1017C52.98 50.1722 52.4285 50.8486 51.4463 51.1717C50.029 51.6369 46.3565 54.9562 45.566 56.66C46.2746 56.0504 46.811 55.5873 47.5541 54.9476L58.9443 66.3378C59.416 65.7885 59.7047 65.4568 60.0041 65.11C56.646 61.752 53.3547 58.4607 50.0613 55.1673C49.7748 54.8808 49.4474 54.618 49.2213 54.2885C49.0834 54.086 49.0963 53.7801 49.0425 53.5195C49.3031 53.526 49.6047 53.4527 49.8179 53.5583C50.0764 53.6875 50.2638 53.9654 50.4792 54.1808C53.876 57.5776 57.2728 60.9744 60.7429 64.4445C61.8177 63.3998 62.787 62.745 62.8947 61.22C62.9399 60.5802 64.0751 59.6562 64.8053 59.5593C65.2878 59.4989 66.1752 60.6018 66.4358 61.3406C66.7568 62.2517 66.0977 63.2382 65.1305 63.1413C63.2307 62.9475 62.7116 64.4186 61.7897 65.2759L67.2436 70.7298C67.418 69.7842 67.515 69.2607 67.6054 68.7352C67.7498 67.9059 67.7519 67.0249 68.0578 66.2624C68.7729 64.4746 70.4594 64.7956 72.1675 64.7891C70.4207 63.0422 68.8461 61.4677 67.2716 59.8931C48.8573 41.4788 30.4451 23.0666 12.0566 4.62647C11.2123 3.78211 10.6371 2.6642 9.96941 1.72076C8.58656 2.91406 6.88492 4.27106 5.34268 5.78746ZM45.7534 47.1114C45.4518 47.1933 44.937 47.4108 44.8875 47.3355C44.5708 46.8379 44.3576 46.2757 44.112 45.7329C44.3404 45.6295 44.5687 45.5261 44.7992 45.4206C45.118 45.9849 45.4367 46.5493 45.7555 47.1136L45.7534 47.1114ZM13.1164 16.6241C10.9667 14.4744 9.90049 12.0555 10.7341 11.2219C11.5677 10.3883 13.9866 11.4546 16.1362 13.6042C18.2859 15.7539 19.3521 18.1728 18.5185 19.0064C17.6849 19.84 15.266 18.7738 13.1164 16.6241ZM47.1836 45.9311C46.9014 46.0065 46.6236 46.0818 46.3414 46.1572C46.1432 45.6575 45.9472 45.1556 45.7469 44.6538C46.1303 44.5461 46.5137 44.4341 46.8971 44.3264L47.1836 45.9311ZM56.7365 56.8452C56.3078 57.149 55.4936 56.9034 54.8475 56.8991C54.8798 56.2723 54.6902 55.4538 55.0133 55.0747C55.3278 54.7085 56.17 54.7968 57.275 54.5965C57.0424 55.6993 57.107 56.5825 56.7365 56.8452Z" fill="white"/>
<path d="M32.4354 41.0738C32.4354 41.0738 32.4181 41.0566 32.4095 41.048C32.403 41.0545 32.3966 41.0609 32.3901 41.0717L32.4354 41.0738Z" fill="white"/>
</g>
<defs>
<clipPath id="clip0_323_3411">
<rect width="14.7801" height="133.82" fill="white" transform="translate(0 11.1285) rotate(-45)"/>
</clipPath>
</defs>
</svg>
