<svg width="113" height="14" viewBox="0 0 113 14" fill="none" xmlns="http://www.w3.org/2000/svg">
<g clip-path="url(#clip0_325_3412)">
<path d="M82.4374 11.8721C82.4374 9.87395 82.4221 9.30632 82.4552 7.32595C82.4603 7.04849 82.6334 6.67176 82.8523 6.51904C85.2348 4.84921 85.3926 4.33248 84.3414 1.90666C85.3494 2.00848 86.4821 2.21975 87.6174 2.22484C94.8185 2.25539 102.017 2.24011 109.401 2.24011L109.401 11.7652C108.065 11.7652 106.846 11.7652 105.627 11.7652C100.879 11.7576 96.1345 11.7347 91.3872 11.7703C90.901 11.7729 90.3741 11.8747 89.6868 11.8747C89.6461 11.526 89.6436 11.4089 89.5596 10.6936C90.0305 10.5205 90.4836 10.4161 90.873 10.1947C92.1127 9.48959 92.441 7.80195 91.6214 6.52413C90.7814 5.21321 89.3941 4.91794 88.1112 5.77576C86.7799 6.66922 86.505 8.12522 87.429 9.4005C88.269 10.5612 88.6814 11.3826 88.6661 11.8645C86.9683 11.8645 85.2628 11.8441 83.5599 11.8823L82.4374 11.8721ZM86.029 9.60414C85.9781 9.29613 85.9679 9.00341 85.9246 8.99832C85.049 8.90159 84.1683 8.83031 83.2901 8.78704C83.2417 8.78704 83.0915 9.11541 83.1399 9.19177C83.2519 9.36232 83.453 9.57614 83.6286 9.58632C84.3745 9.62959 85.1254 9.60414 86.029 9.60414Z" fill="#F464E6"/>
<path d="M37.2529 11.7268C37.5227 11.0727 37.7951 10.421 38.126 9.62174L52.8948 9.62174C52.9228 10.0392 52.9482 10.4414 52.989 11.093L42.9369 11.093C42.9369 11.2534 42.9319 11.4163 42.9319 11.5767L52.9813 11.5767C52.9839 11.737 52.989 11.8948 52.9915 12.0552C51.6042 12.0552 50.2144 12.073 48.8271 12.0501C47.2159 12.0221 45.6071 11.9101 43.9984 11.9356C43.4537 11.9432 42.914 12.2614 42.2675 12.4727L42.2675 10.2046C42.1097 10.1512 41.9544 10.0977 41.7966 10.0443C41.5904 10.5381 41.3842 11.0294 41.1068 11.6937C39.9231 11.6937 38.6046 11.6937 37.2835 11.6963C37.2809 11.6988 37.2529 11.7243 37.2529 11.7243L37.2529 11.7268Z" fill="#F464E6"/>
<path d="M79.887 2.48186C79.5103 4.13132 80.0194 5.23351 81.0986 6.28478C81.5874 6.76078 81.5848 7.74333 81.8495 8.64697L75.8372 8.64697C76.0535 8.16843 76.1273 7.55497 76.4532 7.36151C78.6499 6.0506 78.7594 4.0295 76.6466 2.58114C76.5448 2.51241 76.443 2.44368 76.0459 2.17132C77.4866 2.28586 78.6168 2.3775 79.887 2.47932L79.887 2.48186Z" fill="#F464E6"/>
<path d="M76.033 9.51997L81.4981 9.51997L81.4981 11.7905L76.033 11.7905L76.033 9.51743L76.033 9.51997Z" fill="#F464E6"/>
<path d="M68.7656 9.57339L74.9358 9.57339C75.0453 10.3243 75.1369 10.9734 75.2362 11.653C73.6987 11.7447 72.202 11.8312 70.6747 11.9229C70.6365 10.5508 69.4427 11.3883 68.7682 11.0828L68.7682 9.57339L68.7656 9.57339Z" fill="#F464E6"/>
<path d="M111.608 13.1269L111.608 0.903619C111.654 0.878164 111.7 0.850165 111.743 0.82471C111.919 1.30071 112.245 1.77417 112.245 2.25017C112.25 5.628 112.194 9.00583 112.14 12.3837C112.135 12.6484 111.998 12.9131 111.921 13.1753L111.608 13.1244L111.608 13.1269Z" fill="#F464E6"/>
<path d="M88.1519 8.24995C88.3351 6.95941 88.9282 6.42486 89.7479 6.60559C90.1704 6.69977 90.8195 7.56268 90.7202 7.85032C90.5217 8.40777 89.926 9.04668 89.3813 9.17905C89.0275 9.26305 88.47 8.50959 88.1519 8.2525L88.1519 8.24995Z" fill="#F464E6"/>
<path d="M77.2957 5.11614C76.4455 5.63287 75.9593 6.16233 75.4986 6.13942C75.1142 6.11906 74.4193 5.38342 74.4778 5.0856C74.5695 4.61214 75.1524 3.94269 75.5724 3.90705C75.9975 3.87141 76.4786 4.50778 77.2957 5.11614Z" fill="#F464E6"/>
<path d="M82.2897 2.13579C82.8574 2.90961 83.4785 3.39071 83.4275 3.78016C83.369 4.22562 82.7072 4.58962 82.3075 4.98926C81.9206 4.57944 81.3225 4.21544 81.2206 3.74453C81.1468 3.40343 81.7374 2.92234 82.2872 2.13579L82.2897 2.13579Z" fill="#F464E6"/>
<path d="M67.269 12.1748L56.7665 12.1748C56.7665 12.0755 56.7665 11.9763 56.7639 11.877L67.292 11.877C67.2843 11.9763 67.2767 12.0755 67.2716 12.1748L67.269 12.1748Z" fill="#F464E6"/>
<path d="M0.422592 6.8624C0.40732 8.71804 0.577866 10.5711 0.65423 12.1621C1.79205 12.0093 2.67533 11.7904 3.56115 11.7853C14.7917 11.7395 26.0223 11.7242 37.2529 11.7013C37.1765 11.0242 37.1027 10.3446 37.0136 9.54023L28.8223 9.54023C28.7816 9.37986 28.7409 9.22204 28.7001 9.06168C29.1074 8.9395 29.5147 8.7155 29.9245 8.71295C34.6311 8.6875 39.3402 8.69513 44.0493 8.69513C47.0046 8.69513 49.9598 8.69513 52.9151 8.69513C53.0144 8.59331 53.1111 8.49404 53.2104 8.39222C52.8591 7.94677 52.5409 7.46313 52.1464 7.06095C51.4515 6.35331 51.3827 5.54894 51.8028 4.73948C52.1693 4.0293 53.3478 3.87912 54.0657 4.40603C54.7962 4.94058 54.87 5.66603 54.4806 6.43731C53.918 7.54968 53.7093 11.681 54.2489 13.1548C54.3075 12.3759 54.3508 11.7853 54.4118 10.9682L67.8723 10.9682C67.8264 10.365 67.801 9.99841 67.773 9.61659C63.8046 9.61659 59.9151 9.61659 56.0231 9.61659C55.6846 9.61659 55.3359 9.65477 55.0075 9.59368C54.8064 9.5555 54.6333 9.36714 54.4475 9.24495C54.6053 9.09477 54.7402 8.87332 54.9286 8.80968C55.1577 8.73331 55.4326 8.78677 55.6871 8.78677C59.7013 8.78677 63.7155 8.78677 67.8163 8.78677C67.8341 7.5344 68.0199 6.57476 67.1824 5.61003C66.8312 5.2053 66.9559 3.98857 67.3301 3.49984C67.5795 3.17912 68.7555 3.30639 69.3461 3.58894C70.0741 3.93766 70.2675 4.91003 69.6388 5.42421C68.4017 6.43222 68.9643 7.60822 68.9261 8.6595L75.3712 8.6595C74.9155 7.99768 74.6635 7.63113 74.4065 7.26713C74.0017 6.69185 73.4824 6.17003 73.2126 5.53876C72.5788 4.05985 73.765 3.25293 74.7705 2.23984C72.7061 2.23984 70.8454 2.23984 68.9846 2.23984C47.2235 2.23984 25.4648 2.23984 3.70369 2.2093C2.70587 2.2093 1.70551 1.88857 0.753502 1.72566C0.641502 3.24785 0.437865 5.05512 0.422592 6.8624ZM48.7176 7.40204C48.5878 7.62858 48.4122 8.06131 48.3384 8.04604C47.8573 7.93913 47.3991 7.73295 46.9333 7.55731C47.0071 7.36131 47.0809 7.16531 47.1547 6.96676C47.6766 7.11186 48.1984 7.25695 48.7202 7.40204L48.7176 7.40204ZM11.419 8.67223C8.87862 8.67223 6.81934 7.87295 6.81934 6.88786C6.81934 5.90276 8.87862 5.10349 11.419 5.10349C13.9594 5.10349 16.0186 5.90276 16.0186 6.88786C16.0186 7.87295 13.9594 8.67223 11.419 8.67223ZM48.8653 5.85949C48.7431 6.07076 48.6235 6.27949 48.5013 6.49076C48.0889 6.31258 47.6766 6.13185 47.2616 5.95367C47.4246 5.66349 47.5849 5.37076 47.7478 5.08058L48.8653 5.85949ZM60.9588 6.66385C60.885 7.09658 60.2588 7.43258 59.8744 7.81186C59.5231 7.4224 58.9275 7.05076 58.8944 6.63585C58.8639 6.23367 59.4137 5.78821 59.9482 5.01694C60.4624 5.80603 61.0224 6.28967 60.9588 6.66385Z" fill="#F464E6"/>
<path d="M37.2808 11.704C37.2808 11.704 37.2604 11.704 37.2502 11.704C37.2502 11.7117 37.2502 11.7193 37.2528 11.7295L37.2808 11.704Z" fill="#F464E6"/>
</g>
<defs>
<clipPath id="clip0_325_3412">
<rect width="12.3506" height="111.823" fill="white" transform="translate(0.421631 13.1753) rotate(-90)"/>
</clipPath>
</defs>
</svg>
