<svg width="101" height="101" viewBox="0 0 101 101" fill="none" xmlns="http://www.w3.org/2000/svg">
<path d="M99.119 7.92621L93.3315 2.1388C92.7511 1.55825 92.062 1.09773 91.3036 0.783531C90.5452 0.469334 89.7323 0.307617 88.9114 0.307617C88.0905 0.307617 87.2776 0.469334 86.5192 0.783531C85.7607 1.09773 85.0716 1.55825 84.4912 2.1388L75.4517 11.1881C74.6939 11.9438 74.1234 12.8662 73.7856 13.8816L71.4105 21.0128L56.5151 35.9081C54.14 34.1971 51.5344 32.8338 48.6827 32.1697C42.1492 30.6501 35.5961 31.9978 31.1271 36.4668C29.304 38.2973 27.9481 40.5395 27.1738 43.0042C26.0018 46.6294 22.6403 49.3893 18.9409 49.735C14.3117 50.1784 10.0088 51.9715 6.71174 55.29C-2.2028 64.1791 -0.599195 80.1956 10.2373 91.0262C21.0738 101.857 37.0786 103.439 45.9775 94.5557C49.298 91.2587 51.0871 86.9577 51.5344 82.307C51.8782 78.6252 54.6381 75.25 58.2594 74.0761C60.7245 73.3005 62.9672 71.944 64.7988 70.1209C69.2658 65.6519 70.6077 59.1125 69.0959 52.5906C68.4337 49.7311 67.0704 47.1216 65.3535 44.7387L80.2449 29.8473L87.3703 27.4722C88.3857 27.1344 89.3081 26.5638 90.0638 25.806L99.1131 16.7587C100.284 15.5876 100.942 13.9997 100.943 12.3437C100.944 10.6876 100.288 9.09887 99.119 7.92621ZM41.571 69.0622C39.7167 69.0622 37.904 68.5123 36.3623 67.4822C34.8205 66.452 33.6188 64.9877 32.9092 63.2746C32.1996 61.5614 32.0139 59.6763 32.3757 57.8576C32.7374 56.039 33.6303 54.3684 34.9415 53.0572C36.2527 51.7461 37.9233 50.8531 39.7419 50.4914C41.5606 50.1296 43.4457 50.3153 45.1588 51.0249C46.872 51.7345 48.3362 52.9362 49.3664 54.478C50.3966 56.0198 50.9465 57.8324 50.9465 59.6867C50.9465 62.1733 49.9587 64.5579 48.2005 66.3162C46.4422 68.0744 44.0575 69.0622 41.571 69.0622Z" fill="white"/>
</svg>
