<svg width="75" height="338" viewBox="0 0 75 338" fill="none" xmlns="http://www.w3.org/2000/svg">
<g clip-path="url(#clip0_164_3058)">
<path d="M22.7893 75.1874V36.0122H61.0682V133.614C62.1767 133.702 63.0375 133.744 63.8866 133.844C71.7641 134.758 75.5024 141.25 71.4811 148.042C69.4292 151.503 68.869 154.811 69.1226 158.55C69.1638 159.127 69.1226 159.705 69.1226 160.596C67.2534 160.678 65.5258 160.702 63.81 160.843C60.85 161.085 59.0634 162.883 59.1224 165.466C59.1814 168.149 60.85 169.611 64.0694 169.664C67.2004 169.717 70.3313 169.676 73.4387 169.676C73.9339 176.109 71.2275 178.149 61.3453 178.833V206.616C62.8312 206.817 64.2994 206.905 65.7086 207.23C71.9115 208.651 74.7299 213.639 72.8844 219.712C72.0176 222.554 71.2747 225.431 70.4021 228.551C68.1556 228.71 65.402 228.686 62.7427 229.164C60.5434 229.565 59.0752 231.045 59.3582 233.58C59.6472 236.122 61.1566 237.401 63.6567 237.543C64.9303 237.613 66.2098 237.59 67.4893 237.59C69.7299 237.596 71.9646 237.59 74.1757 237.59C74.7241 244.117 72.1061 246.021 61.1684 247.142C61.1684 248.15 61.1684 249.2 61.1684 250.243C61.1507 267.142 61.0859 284.047 61.1743 300.946C61.1861 302.927 61.8701 304.967 62.5482 306.871C67.1001 319.637 61.1095 332.739 48.4677 336.837C40.1716 339.525 32.701 337.491 26.5275 331.382C20.2539 325.174 18.0604 317.556 21.0381 309.242C24.3223 300.067 21.9874 290.798 23.0546 281.476C18.196 281.134 13.5556 279.913 11.3327 285.651C14.446 289.855 14.6347 292.927 11.7808 295.462C9.22184 297.732 5.58971 297.779 3.23708 295.58C0.465809 292.992 0.719351 289.849 4.12153 285.35C3.60265 284.695 3.01892 284.047 2.52952 283.333C1.01417 281.14 0.742936 278.764 1.9163 276.37C3.26066 273.634 5.66636 272.437 8.61452 272.325C10.9672 272.236 13.3316 272.29 15.6901 272.29C17.9366 272.29 20.1831 272.29 22.6831 272.29V259.176C21.3093 260.332 20.0947 261.364 18.8741 262.378C15.2361 265.391 11.3917 265.497 7.62394 262.649C6.37392 261.706 5.18876 260.656 4.02129 259.612C2.78306 258.504 1.59201 257.342 0 255.839C2.68283 254.542 5.14749 253.48 7.46474 252.165C8.23126 251.729 9.11571 250.644 9.12161 249.848C9.22184 235.314 9.19236 220.773 9.19236 205.991V195.124C9.19826 194.087 9.19826 192.96 9.19826 191.834C9.19826 166.975 9.21005 142.111 9.14519 117.252C9.14519 115.848 8.70886 114.363 8.14282 113.054C6.75718 109.834 5.18876 106.703 3.46704 103.065C5.2831 103.171 6.52723 103.248 8.03668 103.336C7.83621 100.141 7.23478 96.6559 11.3917 95.2584C7.74187 92.21 7.11096 89.5685 9.36335 87.1569C11.4742 84.9045 15.2066 85.046 17.176 87.4635C18.9567 89.651 18.0074 92.6464 14.7998 94.9636C18.3199 97.5934 18.5321 98.0946 18.2668 103.095C19.7055 103.095 21.1383 103.095 22.748 103.095V83.8962L22.7834 75.1991L22.7893 75.1874ZM17.6123 136.715V195.107H22.9485V158.585C25.4898 158.933 27.6596 159.446 29.8413 159.481C36.911 159.587 43.9747 159.528 51.0444 159.505C53.8924 159.493 56.7462 159.517 59.5764 159.31C62.1826 159.121 63.639 157.376 63.5859 154.811C63.5328 152.152 62.0823 150.637 59.5115 150.242C58.4561 150.082 57.3535 150.153 56.2745 150.153C47.2413 150.153 38.2081 150.112 29.1809 150.189C27.2174 150.206 25.2598 150.643 22.919 150.931V136.715H17.6064H17.6123ZM22.7893 112.145C24.8648 112.346 26.4922 112.629 28.1254 112.641C36.4628 112.712 44.8061 112.712 53.1435 112.741C57.0882 112.759 59.2285 111.108 59.258 108.006C59.2875 104.781 57.1235 102.988 53.0669 102.983C45.8085 102.971 38.5265 103.348 31.2918 102.906C25.3601 102.54 21.0675 103.696 19.9237 110.265C19.8765 110.542 19.7173 110.819 19.5463 111.055C15.6783 116.503 18.2255 122.541 17.4295 128.349H22.7893V112.14V112.145ZM45.3899 219.388C45.3899 219.388 45.3899 219.429 45.3899 219.447C40.6905 219.447 35.9852 219.346 31.2859 219.482C28.037 219.576 26.3389 221.257 26.215 224.022C26.0912 226.746 27.7894 228.916 30.879 228.963C40.2778 229.105 49.6824 229.081 59.0752 228.863C62.2887 228.786 64.1696 226.422 63.9338 223.751C63.7038 221.133 61.7227 219.447 58.6153 219.405C54.2108 219.346 49.8003 219.388 45.3899 219.388ZM59.3936 276.134C59.4054 270.786 55.2308 266.44 50.0715 266.434C44.5349 266.423 39.9947 270.756 39.9181 276.14C39.8414 281.222 44.5467 285.863 49.7413 285.839C55.1954 285.81 59.3818 281.6 59.3936 276.14V276.134ZM47.9901 133.054C47.9017 127.83 43.4854 123.555 38.2966 123.679C32.9427 123.803 28.7505 128.178 28.7681 133.614C28.7858 138.697 33.6208 143.249 38.8214 143.072C43.8509 142.907 48.0786 138.284 47.9901 133.048V133.054ZM17.5298 205.761C17.5298 207.194 17.5298 208.35 17.5298 209.506C17.5239 222.065 17.5298 234.63 17.5062 247.189C17.5003 252.26 17.4767 252.26 22.6949 253.28V205.761H17.5298Z" fill="black"/>
<path d="M22.6357 26.4838C22.8303 22.6984 22.6475 19.025 23.2784 15.499C24.9766 6.00003 33.7444 -0.255969 43.8094 0.486967C53.4263 1.19453 60.7908 8.73002 61.1859 18.341C61.292 20.9649 61.2036 23.5946 61.2036 26.4779H22.6357V26.4838Z" fill="black"/>
</g>
<defs>
<clipPath id="clip0_164_3058">
<rect width="74.2439" height="337.573" fill="white" transform="translate(0 0.427246)"/>
</clipPath>
</defs>
</svg>
