<svg width="435" height="437" viewBox="0 0 435 437" fill="none" xmlns="http://www.w3.org/2000/svg">
<g clip-path="url(#clip0_180_3317)">
<path d="M293.754 89.9712C302.034 111.051 310.174 131.761 318.314 152.461C322.514 163.131 326.894 173.731 330.834 184.491C332.014 187.701 333.484 188.701 336.864 188.681C362.194 188.521 387.524 188.561 412.864 188.601C427.684 188.621 434.774 195.851 434.754 210.811C434.724 236.141 434.694 261.471 434.654 286.811C434.654 288.471 434.684 290.161 434.474 291.801C433.654 298.201 430.284 301.281 423.894 301.301C412.894 301.331 401.894 301.211 390.894 301.211C378.104 301.211 372.124 306.791 371.684 319.491C370.714 347.971 369.894 376.461 369.034 404.941C368.974 406.751 369.034 408.561 369.034 410.951C362.254 410.951 355.944 411.141 349.674 410.741C348.754 410.681 347.354 407.901 347.294 406.331C346.664 392.011 346.254 377.691 345.834 363.361C345.404 348.701 345.114 334.041 344.604 319.391C344.174 307.021 338.074 301.201 325.754 301.191C302.944 301.161 280.134 301.191 256.574 301.191V324.731H235.254C235.124 326.891 234.954 328.501 234.954 330.101C234.954 356.101 234.904 382.101 235.094 408.101C235.104 410.001 236.334 412.361 237.754 413.691C242.954 418.591 243.314 426.561 238.194 431.471C233.294 436.171 225.844 435.771 221.364 430.561C216.814 425.271 217.844 416.961 223.274 412.791C224.564 411.801 225.834 409.811 225.844 408.271C225.994 382.111 225.874 355.941 226.024 329.771C226.044 325.791 224.774 324.481 220.854 324.661C214.864 324.941 208.854 324.811 202.854 324.731C200.144 324.691 199.024 325.661 199.034 328.521C199.094 355.351 198.984 382.181 199.164 409.021C199.174 410.741 200.894 412.681 202.244 414.111C206.374 418.511 207.114 424.221 203.914 429.201C200.924 433.851 195.414 435.791 190.464 433.941C184.814 431.831 181.544 426.381 182.914 420.401C183.434 418.131 184.724 415.321 186.554 414.211C189.864 412.211 190.204 409.691 190.194 406.361C190.114 381.361 190.164 356.361 190.174 331.361C190.174 329.391 190.174 327.421 190.174 324.851H168.324V301.301C165.774 301.301 163.844 301.301 161.914 301.301C146.914 301.281 131.914 301.271 116.914 301.241C104.544 301.221 98.1641 307.401 97.8041 319.811C96.9741 348.131 96.1541 376.451 95.3141 404.761C95.2541 406.731 95.0841 408.691 94.9441 410.871H73.9641C73.6241 403.421 73.2241 396.291 72.9941 389.151C72.2541 366.171 71.5641 343.181 70.8841 320.191C70.4841 306.761 64.8541 301.211 51.4141 301.141C37.9141 301.081 24.4141 301.121 10.9141 301.011C4.34411 300.951 1.11411 298.451 0.694107 292.021C0.104107 282.891 -0.285892 273.681 0.264108 264.561C0.924108 253.831 9.11411 245.631 19.8441 243.501C27.0041 242.081 30.8741 237.611 30.9241 230.381C31.0041 218.551 31.2441 206.711 30.8541 194.891C30.6841 189.621 32.5341 186.511 36.7441 183.441C73.8341 156.331 110.744 128.971 147.724 101.701C188.994 71.2712 230.314 40.9212 271.524 10.4212C283.434 1.61119 296.374 -2.55881 310.874 1.65119C316.554 3.30119 321.684 6.88119 327.664 9.88119C322.094 14.1812 318.004 13.6612 312.954 11.6812C300.414 6.76119 288.614 8.94119 277.694 17.0612C248.164 39.0212 218.504 60.7912 188.884 82.6312C141.444 117.601 93.9941 152.571 45.7641 188.121H318.694C306.844 157.981 295.014 127.901 282.934 97.2112C272.474 104.871 262.684 112.011 252.924 119.201C230.934 135.401 208.934 151.571 187.014 167.871C173.914 177.611 159.464 182.991 142.984 182.871C128.154 182.761 113.324 183.021 98.4841 183.091C96.7041 183.091 94.9241 182.911 92.7241 181.761C99.2941 176.781 105.794 171.711 112.434 166.821C172.954 122.141 233.534 77.5312 294.024 32.8212C307.454 22.8912 321.754 14.7812 338.624 13.2312C345.904 12.5612 353.654 13.2512 360.734 15.0812C369.644 17.3912 372.184 25.9612 366.324 33.1212C361.854 38.5912 356.424 43.4712 350.774 47.7512C333.774 60.6112 316.464 73.0412 299.274 85.6612C297.534 86.9412 295.864 88.3012 293.764 89.9312L293.754 89.9712ZM8.98411 276.131H425.574C425.574 273.981 425.574 272.171 425.574 270.361C425.594 250.861 425.624 231.371 425.644 211.871C425.644 210.541 425.654 209.201 425.564 207.871C425.114 200.921 422.094 197.951 415.224 197.701C413.724 197.651 412.224 197.681 410.724 197.681C289.404 197.681 168.094 197.681 46.7741 197.681H40.6541C40.2641 198.481 40.0041 198.771 40.0041 199.061C39.9141 209.061 39.4841 219.061 39.8741 229.041C40.3241 240.721 33.2041 251.081 21.0641 252.761C14.0541 253.731 9.45411 259.681 9.00411 266.751C8.81411 269.731 8.97411 272.721 8.97411 276.131H8.98411Z" fill="black"/>
<path d="M74.5439 416.611H94.644C94.644 422.421 94.7639 428.171 94.5039 433.891C94.4639 434.681 92.5839 435.991 91.5139 436.031C86.0639 436.251 80.6039 436.131 74.5439 436.131V416.611Z" fill="black"/>
<path d="M348.094 416.621H367.984V435.961H348.094V416.621Z" fill="black"/>
</g>
<defs>
<clipPath id="clip0_180_3317">
<rect width="434.754" height="436.164" fill="white"/>
</clipPath>
</defs>
</svg>
