<svg width="654" height="528" viewBox="0 0 654 528" fill="none" xmlns="http://www.w3.org/2000/svg">
<g clip-path="url(#clip0_187_3321)">
<path d="M411.351 337.957C431.111 318.917 450.021 300.697 469.231 282.177C466.911 279.677 464.941 277.467 462.891 275.347C433.541 244.877 404.171 214.417 374.821 183.957C361.751 170.387 344.921 165.107 326.951 164.377C309.871 163.687 292.711 165.077 275.581 165.607C271.091 165.747 266.601 166.297 262.111 166.307C255.551 166.307 251.981 161.527 254.101 155.307C255.211 152.047 256.781 148.727 258.931 146.067C286.601 111.837 317.081 80.517 354.171 56.327C359.501 52.847 365.891 50.827 372.021 48.807C374.761 47.897 378.051 48.657 381.711 48.657C380.651 53.447 379.611 57.267 378.981 61.157C373.881 92.347 376.321 122.987 386.821 152.777C388.851 158.527 392.621 164.077 396.821 168.567C417.531 190.707 438.591 212.537 459.641 234.347C517.611 294.397 575.611 354.417 633.661 414.397C653.341 434.737 658.861 462.937 647.901 488.267C637.081 513.257 612.661 528.747 584.531 527.897C566.761 527.357 551.581 520.367 539.201 507.547C484.361 450.717 429.541 393.867 374.721 337.007C373.121 335.347 371.661 333.547 369.771 331.397C353.021 347.537 336.771 363.187 320.211 379.137C330.341 389.667 340.131 399.847 349.931 410.017C363.461 424.057 376.921 438.157 390.611 452.037C392.681 454.137 395.661 455.747 398.511 456.577C414.111 461.127 427.211 469.707 438.681 480.937C442.141 484.327 442.021 488.017 438.511 491.447C428.861 500.887 419.141 510.257 409.351 519.537C405.321 523.357 401.811 523.267 398.141 519.087C387.241 506.657 378.581 492.997 375.321 476.417C374.971 474.617 373.731 472.777 372.421 471.427C316.841 413.687 261.191 356.017 205.581 298.297C188.371 280.437 171.321 262.427 154.101 244.587C108.751 197.577 63.3215 150.647 17.9415 103.677C-6.29854 78.587 -5.92854 40.247 18.7615 16.707C43.2515 -6.64298 81.4715 -5.21298 105.401 19.637C180.171 97.297 255.041 174.857 329.871 252.467C355.871 279.427 381.861 306.397 407.821 333.387C409.071 334.687 410.051 336.257 411.351 337.957ZM357.891 319.807C356.401 318.157 355.321 316.897 354.171 315.707C328.981 289.577 303.771 263.457 278.571 237.317C214.511 170.877 150.451 104.417 86.3615 37.987C72.2115 23.317 51.0915 22.377 37.1515 35.667C22.8815 49.267 22.6115 70.447 36.8215 85.227C98.9215 149.847 161.071 214.417 223.241 278.967C243.121 299.597 262.971 320.257 283.141 340.607C291.671 349.217 300.981 357.047 310.351 365.607C325.181 351.327 341.341 335.757 357.891 319.817V319.807ZM504.341 433.087C523.431 414.687 542.461 396.357 561.731 377.797C534.641 349.707 507.891 321.977 480.891 293.987C461.441 312.737 442.451 331.027 423.331 349.447C449.941 377.047 476.061 404.127 502.191 431.207C502.761 431.797 503.431 432.297 504.341 433.087ZM608.651 426.847C604.751 430.577 600.841 433.937 597.431 437.767C596.171 439.187 595.321 441.787 595.611 443.657C598.151 460.257 585.111 472.757 568.601 469.417C567.151 469.127 564.991 469.097 564.071 469.937C559.811 473.837 555.881 478.087 551.841 482.197C568.931 504.337 595.541 508.197 614.031 491.277C633.211 473.737 631.221 447.567 608.641 426.867L608.651 426.847ZM597.111 413.747C588.891 406.167 580.631 398.547 572.171 390.737C553.791 408.447 534.871 426.677 515.341 445.507C524.081 453.397 532.441 460.937 542.391 469.907C544.991 466.787 548.701 462.517 552.151 458.057C552.901 457.087 553.171 455.347 552.951 454.087C549.781 435.667 562.571 423.297 580.661 427.297C581.911 427.577 583.821 427.497 584.611 426.737C588.671 422.827 592.471 418.637 597.101 413.757L597.111 413.747Z" fill="black"/>
</g>
<defs>
<clipPath id="clip0_187_3321">
<rect width="653.457" height="527.87" fill="white" transform="translate(0 0.0600586)"/>
</clipPath>
</defs>
</svg>
