<svg width="219" height="98" viewBox="0 0 219 98" fill="none" xmlns="http://www.w3.org/2000/svg">
<g clip-path="url(#clip0_164_2985)">
<path d="M96.4636 33.9783V25.4403H88.2963C87.7663 26.5906 87.4868 27.8756 86.6532 28.8016C85.9112 29.6257 84.562 30.4905 83.4682 30.5068C82.6924 30.515 81.4637 29.234 81.1794 28.357C79.7483 23.9391 79.9893 19.46 81.377 15.0706C81.642 14.2303 82.943 13.2268 83.9356 13.0677C84.7403 12.9371 86.0557 13.7979 86.6966 14.5077C87.5446 15.45 87.959 16.6738 88.6143 17.8731H95.8757C96.2612 15.1604 97.5092 12.9412 100.718 11.8643C101.046 11.7541 101.239 11.0484 101.253 10.616C101.311 8.65385 101.277 6.68762 101.277 4.56637C100.651 4.50926 100.034 4.3624 99.4462 4.41951C97.7308 4.59493 96.8298 4.00342 96.8057 2.54303C96.7816 1.13974 97.4369 0.111747 99.2535 0.0546369C101.581 -0.018791 103.908 0.00160565 106.235 0.00568498C108.182 0.00568498 109.261 0.833788 109.228 2.50631C109.189 4.36648 107.739 4.5011 106.033 4.26858C105.734 4.22779 105.416 4.2645 105.04 4.2645C105.04 6.54892 104.983 8.78439 105.084 11.0199C105.108 11.5216 105.556 12.1865 106.052 12.4639C108.336 13.7449 109.84 15.3684 109.791 17.869C110.668 17.9139 111.444 17.9547 112.374 18.0037C112.63 15.3766 113.694 13.2309 116.807 12.2069C117.154 12.0927 117.438 11.4563 117.448 11.0566C117.511 8.88637 117.477 6.71617 117.477 4.3828C116.788 4.35017 116.186 4.28082 115.583 4.30121C113.935 4.35833 113.001 3.80354 112.976 2.31866C112.952 0.780757 113.873 0.0546369 115.617 0.0546369C118.026 0.0546369 120.431 0.107668 122.84 0.144382C124.82 0.172937 125.476 1.19277 125.423 2.68988C125.36 4.3624 123.977 4.39504 122.527 4.32161C122.146 4.30121 121.761 4.28082 121.23 4.25634C121.23 6.58156 121.187 8.81703 121.269 11.0484C121.283 11.4849 121.655 12.105 122.079 12.3048C124.642 13.4919 125.895 15.3358 126.174 18.1709C129.913 18.1709 133.691 17.9547 137.416 18.2117C147.52 18.9134 153.774 24.498 154.357 33.0523C154.377 33.3175 154.401 33.5826 154.43 33.9294C154.757 33.9946 155.051 34.1007 155.34 34.1007C166.741 34.0069 178.151 34.0476 189.542 33.7376C195.748 33.5704 201.439 31.6898 206.421 28.4467C211.369 25.2281 213.923 20.7694 215.509 15.8131C215.73 15.1155 215.961 14.422 216.448 13.753C219.219 29.9887 219.464 46.1918 216.419 62.4683C214.665 56.9571 212.145 51.9314 205.823 48.9249C206.113 50.8341 206.503 52.6004 206.628 54.3872C207.361 64.92 199.521 73.2418 187.176 75.0204C185.287 75.2937 183.35 75.4202 181.437 75.4242C163.691 75.4528 145.944 75.4406 128.193 75.4406C127.475 75.4406 126.752 75.4406 125.726 75.4406C125.683 76.2279 125.606 76.9417 125.606 77.6556C125.591 82.6895 125.62 87.7193 125.582 92.7532C125.562 95.2865 124.136 96.8856 121.414 97.6076C118.171 98.4643 115.521 97.934 113.892 95.8617C113.275 95.0784 112.943 93.9893 112.928 93.0347C112.846 88.0702 112.909 83.1056 112.919 78.1451C112.919 77.3415 112.919 76.5379 112.919 75.5956H109.127C109.127 78.5531 109.127 81.4576 109.127 84.358C109.127 87.2135 109.146 90.069 109.112 92.9246C109.069 96.3553 106.621 98.0074 101.778 97.9136C98.3091 97.8483 96.3672 95.8331 96.4106 92.6186C96.4877 86.9891 96.4299 81.3556 96.4299 75.5711H88.4312C87.7614 76.9785 87.3471 78.4062 86.4364 79.5525C85.8533 80.2868 84.4704 81.066 83.5742 80.968C82.7069 80.8742 81.5794 79.7891 81.2999 78.961C79.758 74.4126 79.97 69.8111 81.5649 65.3034C81.8492 64.5039 83.0201 63.5575 83.95 63.4066C84.7403 63.2801 85.9883 64.0429 86.6291 64.6956C87.4145 65.4952 87.7759 66.5925 88.4023 67.698H96.3335V45.5432C96.1841 45.4698 96.054 45.3392 95.9239 45.3433C83.6513 45.5758 71.3353 45.3351 59.1253 46.1836C43.0172 47.3055 28.7594 52.6331 16.7999 62.0318C15.8603 62.7702 14.9063 63.5045 13.8944 64.1735C10.1119 66.6659 7.03774 66.2131 4.45505 62.7539C2.02172 59.5026 1.30859 55.7945 0.860475 52.0742C-0.392325 41.6882 -0.416418 31.3023 1.72298 20.9938C2.18555 18.7747 3.1107 16.4902 4.47914 14.5689C6.56553 11.6358 9.99628 11.3503 13.0753 13.5735C14.5931 14.6709 15.8796 15.9966 17.2288 17.2531C26.1092 25.5259 37.2447 30.3967 50.1485 32.0447C58.6049 33.1257 67.2011 33.55 75.7587 33.9212C82.5575 34.2149 89.3853 33.9824 96.4684 33.9824L96.4636 33.9783ZM125.76 67.6042C126.116 67.6817 126.338 67.7714 126.565 67.7714C145.67 67.751 164.775 67.7918 183.875 67.6613C190.607 67.6164 196.423 62.9334 197.328 57.308C198.523 49.8795 193.999 45.3719 185.258 45.3392C175.144 45.3066 165.03 45.3188 154.916 45.3147C153.408 45.3147 151.905 45.3147 150.247 45.3147C150.117 47.2443 149.843 48.929 149.924 50.6056C150.074 53.8609 153.293 55.5335 156.873 54.2974C157.889 53.9466 158.843 53.4571 159.812 53.041C162.192 55.8272 161.836 56.8144 158.164 57.8628C152.652 59.4415 147.192 56.7491 146.33 51.8213C145.973 49.7775 146.272 47.6522 146.272 45.482H125.765V67.6083L125.76 67.6042ZM125.755 33.9946H145.824C145.819 29.8949 143.66 26.5539 139.589 25.9176C135.117 25.2159 130.448 25.3995 125.75 25.1914V33.9946H125.755ZM112.774 68.0121V45.3066C111.521 45.3678 110.447 45.4167 109.286 45.4698V67.8775C110.447 67.9224 111.463 67.9632 112.774 68.0121ZM112.702 34.1007V25.2812C111.444 25.3587 110.437 25.4199 109.358 25.4892V34.1007H112.702Z" fill="black"/>
</g>
<defs>
<clipPath id="clip0_164_2985">
<rect width="218.615" height="98" fill="white"/>
</clipPath>
</defs>
</svg>
