<svg width="225" height="300" viewBox="0 0 225 300" fill="none" xmlns="http://www.w3.org/2000/svg">
<g clip-path="url(#clip0_164_2987)">
<path d="M75.7491 119.738H79.1454C79.2804 118.021 79.0223 116.145 79.6323 114.622C80.5826 112.258 81.7499 109.729 83.5449 108.041C85.0114 106.659 85.4748 105.512 85.4924 103.666C85.639 91.0333 85.3223 78.3599 86.208 65.7747C88.0617 39.2869 112.012 17.845 138.239 19.5211C162.483 21.0678 179.465 33.9705 189.226 56.0476C191.871 62.0403 192.857 68.7799 194.429 75.2195C194.781 76.6603 195.191 77.3013 196.722 77.6248C201.667 78.6598 206.559 79.0186 211.51 77.7483C214.326 77.0249 216.79 76.0134 218.455 73.3435C219.74 71.2851 221.488 71.4674 222.896 73.4611C225.571 77.2425 225.735 86.2404 223.16 90.11C221.957 91.9096 219.963 92.4506 218.737 90.8216C215.147 86.0581 210.026 86.0287 204.993 85.8875C202.4 85.8169 199.796 86.5815 197.186 86.8696C195.191 87.0931 194.769 88.1634 194.781 90.0395C194.957 113.463 195.086 136.887 195.162 160.305C195.232 182.159 195.303 204.018 195.226 225.872C195.097 261.487 171.499 290.85 136.761 298.407C98.3446 306.77 53.8516 281.594 47.5046 237.192C45.9032 226.007 46.2376 214.539 45.7976 203.195C44.8943 180.088 44.5247 156.953 43.0817 133.882C41.7677 112.887 39.5973 91.9331 37.2686 71.0205C36.0895 60.4466 33.8663 49.9667 29.2498 40.2102C24.2697 29.6833 16.8375 21.8205 5.58079 17.9626C3.07604 17.0981 -0.0974282 16.3042 0.0022927 12.8109C0.102014 9.29998 3.04671 7.75918 5.87996 7.08287C14.1216 5.11275 22.3808 2.93092 30.7632 1.90764C41.0169 0.660878 51.4055 -0.0448357 61.7295 0.00221186C76.9809 0.0727832 92.1092 2.06642 106.926 5.83023C109.601 6.50654 112.311 7.71213 114.552 9.30587C117.585 11.4642 117.168 14.4517 113.966 16.3748C113.133 16.8746 112.241 17.2981 111.326 17.6098C95.3647 22.9908 86.2432 34.6998 82.7237 50.5607C80.1485 62.1756 78.7524 74.0903 77.4971 85.9463C76.4237 96.0674 76.2946 106.289 75.7608 116.463C75.708 117.515 75.7549 118.58 75.7549 119.738H75.7491ZM85.3927 170.944C81.6678 170.75 82.8996 173.39 82.6122 174.825C81.9259 178.236 79.8494 180.765 77.1921 180.959C74.6756 181.141 73.0977 179.565 71.8306 174.872C71.0739 176.26 70.1412 177.266 70.3583 177.713C70.9918 179.006 71.8658 180.682 73.039 181.106C75.1507 181.865 75.444 183.017 75.444 184.981C75.4323 196.149 75.3678 207.323 75.7197 218.485C75.8547 222.837 76.3357 227.407 77.8256 231.447C84.7239 250.154 98.2508 260.634 118.078 262.986C141.008 265.709 165.985 248.443 165.879 220.696C165.703 174.155 165.762 127.613 165.68 81.0769C165.668 74.8725 164.741 68.7975 162.383 62.993C155.643 46.397 138.878 38.5988 123.621 45.1973C113.936 49.3845 108.516 57.0415 106.557 67.3919C106.909 67.4272 107.014 67.4684 107.085 67.439C107.525 67.239 107.947 67.0097 108.393 66.8156C119.134 62.1461 130.185 59.9996 141.248 65.0984C155.637 71.7321 163.269 83.5293 163.41 99.2784C163.744 136.217 163.568 173.155 163.445 210.093C163.433 213.851 162.729 217.709 161.714 221.343C154.945 245.561 126.548 255.494 107.513 242.591C93.3938 233.017 84.4131 220.749 85.3047 202.63C85.8209 192.186 85.3985 181.688 85.3985 170.938L85.3927 170.944ZM153.461 101.942C153.461 103.348 153.461 104.407 153.461 105.465C153.467 136.24 153.484 167.009 153.461 197.784C153.461 200.619 153.291 203.471 152.945 206.282C150.927 222.743 133.616 233.176 118.465 226.86C108.229 222.59 102.703 214.357 102.011 203.465C101.377 193.509 101.723 183.482 101.741 173.49C101.741 171.226 100.885 170.75 98.9723 171.432C98.9723 184.546 98.5441 197.584 99.0779 210.581C99.7935 228.053 116.646 240.703 133.781 237.245C146.639 234.646 155.837 223.066 155.86 209.152C155.919 172.89 155.948 136.634 155.878 100.372C155.843 80.1007 140.216 67.0626 120.283 70.4736C107.39 72.6848 99.0016 82.3413 98.6731 95.4558C98.5617 99.9606 98.6262 104.471 98.6145 108.982C98.6145 110.705 98.6145 112.428 98.6145 113.781C96.3561 115.151 93.3938 113.522 92.3555 117.027H101.512C101.512 112.493 101.313 107.894 101.577 103.325C101.782 99.743 102.04 96.0145 103.202 92.6741C106.797 82.3119 117.022 78.1364 126.624 82.8588C132.226 85.617 135.482 90.2865 135.975 96.485C136.373 101.548 136.098 106.665 136.25 111.752C136.274 112.569 137.001 113.363 137.4 114.163C137.787 114.034 138.174 113.898 138.567 113.769V101.942H153.473H153.461ZM146.416 196.949C141.735 205.771 137.506 208.835 130.361 208.611C121.556 208.335 117.221 202.836 115.233 194.82H111.314C111.314 188.781 111.408 182.923 111.25 177.072C111.209 175.631 110.346 174.208 109.859 172.778L108.997 173.084C108.997 183.17 108.628 193.274 109.114 203.336C109.502 211.305 113.925 217.191 121.392 220.114C128.496 222.89 135.042 221.384 140.556 216.021C145.747 210.975 146.78 204.553 146.416 196.949ZM85.2929 165.021V113.593C84.9293 113.516 84.5597 113.434 84.196 113.357C83.8617 114.669 83.2399 115.98 83.2281 117.298C83.1284 133.458 83.1167 149.619 83.0874 165.78C83.0874 166.339 83.1929 166.892 83.2692 167.621H101.489V120.92C98.9254 120.144 98.7553 121.561 98.7494 123.343C98.7494 135.976 98.7083 148.614 98.679 161.246C98.679 162.481 98.679 163.716 98.679 165.021H85.2871H85.2929ZM133.781 180.688C133.781 183.147 133.904 185.493 133.704 187.81C133.652 188.445 132.637 189.004 132.068 189.598C131.604 189.022 130.818 188.486 130.736 187.857C130.525 186.316 130.813 184.711 130.56 183.182C130.367 182 129.675 180.9 129.205 179.765C128.871 179.836 128.537 179.912 128.202 179.983V173.037C127.915 172.884 127.627 172.726 127.34 172.573C126.812 173.255 126.079 173.866 125.815 174.637C125.539 175.431 125.709 176.378 125.709 177.26C125.709 183.1 125.709 188.933 125.709 194.732C124.46 194.926 123.662 195.05 122.811 195.185C124.647 199.596 128.496 201.742 132.666 200.842C136.849 199.943 138.814 197.273 138.796 192.527C138.767 186.657 138.696 180.794 138.732 174.925C138.743 173.161 138.38 172.296 136.291 173.231V180.2C135.353 180.388 134.625 180.535 133.792 180.7L133.781 180.688ZM125.651 97.0319V113.975C126.736 113.904 127.446 113.857 128.202 113.81C128.202 108.423 128.413 103.23 128.144 98.0611C127.868 92.7388 123.826 88.6986 119.157 88.5104C114.429 88.3163 109.748 91.9331 109.197 97.0848C108.68 101.942 109.085 106.9 109.085 111.817C109.378 111.852 109.672 111.887 109.965 111.917C113.027 107.382 110.129 101.89 111.572 97.0319H125.656H125.651ZM75.6728 122.949V177.107C78.8932 176.789 79.0809 174.578 79.0868 172.267C79.122 156.706 79.1454 141.139 79.163 125.578C79.163 124.725 79.034 123.873 78.9577 122.949H75.667H75.6728ZM109.801 121.038C109.56 121.132 109.32 121.226 109.079 121.32V163.892C109.308 163.992 109.543 164.092 109.771 164.198C110.288 163.234 111.244 162.269 111.256 161.305C111.338 148.984 111.32 136.658 111.197 124.337C111.185 123.232 110.288 122.138 109.801 121.038ZM128.126 168.374V145.15C127.874 144.985 127.616 144.82 127.363 144.662C126.8 145.326 125.756 145.985 125.744 146.661C125.627 153.389 125.703 160.117 125.662 166.845C125.651 168.721 126.525 168.956 128.12 168.374H128.126ZM138.479 145.173C138.192 144.973 137.91 144.768 137.623 144.568C137.142 145.162 136.256 145.75 136.25 146.344C136.156 153.671 136.186 161.005 136.186 168.332C136.467 168.509 136.749 168.679 137.025 168.856C137.511 168.291 138.409 167.727 138.415 167.156C138.509 159.829 138.479 152.501 138.479 145.173ZM128.179 118.727C124.395 118.109 125.832 120.885 125.592 122.42C125.304 124.249 125.762 125.531 128.179 124.766V118.727ZM86.5482 110.629C86.7008 111.005 86.8533 111.376 87.0117 111.752C87.874 111.434 88.7245 111.064 89.6103 110.811C90.5312 110.552 91.4756 110.37 92.4201 110.235C93.124 110.129 93.8396 110.146 94.5494 110.111C94.5083 109.582 94.6608 108.858 94.3793 108.564C93.8279 108 92.7955 107.159 92.379 107.347C90.3611 108.27 88.4781 109.505 86.5482 110.629ZM138.303 117.909C134.807 119.138 136.514 121.814 136.244 123.637C136.174 124.114 137.259 124.761 138.303 125.825V117.909ZM125.48 133.811C129.997 134.07 127.686 131.153 128.296 129.524C124.231 129.089 125.956 131.853 125.48 133.811ZM138.679 129.289C134.596 129.383 136.79 132.182 135.98 133.976C140.157 133.847 138.104 131.112 138.679 129.289Z" fill="black"/>
</g>
<defs>
<clipPath id="clip0_164_2987">
<rect width="225" height="300" fill="white"/>
</clipPath>
</defs>
</svg>
