<svg width="244" height="578" viewBox="0 0 244 578" fill="none" xmlns="http://www.w3.org/2000/svg">
<g clip-path="url(#clip0_164_2992)">
<path d="M116.68 577.84C115.05 563.22 110.14 533.4 107.83 519.2C106.99 514.05 104.03 508.85 100.87 504.53C88.5101 487.68 66.4001 481.66 43.7001 488.33C29.7401 492.43 17.5201 499.68 6.32006 508.8C5.05006 509.84 3.76006 510.86 0.98006 513.09C0.69006 504.78 -0.71994 497.6 0.47006 490.89C2.19006 481.18 5.50006 471.71 8.68006 462.32C10.8001 456.04 13.9301 450.12 16.4801 443.98C20.2201 434.98 20.8101 425.97 15.8201 417.17C19.7301 416.79 23.2201 416.59 26.6601 416.08C35.2701 414.81 42.2501 410.42 46.2701 402.89C56.3801 383.96 60.8601 363.73 57.9601 342.22C56.5201 331.53 47.5301 319.48 33.3601 319.64C31.7401 319.66 30.1101 319.13 27.8901 318.75C36.7201 308.55 35.6801 297.68 31.8801 286.13C29.1901 277.97 26.6701 269.47 26.0401 260.98C24.3301 237.76 33.6001 219.2 52.4201 205.52C66.9601 194.96 84.0001 191.21 101.8 187.59C98.8401 249.73 95.8901 311.41 92.9001 374.15C88.2301 367.74 82.6901 365.84 76.1401 368.01C69.2301 370.3 65.4901 375.89 64.8301 382.6C63.6001 395.01 63.4901 407.52 62.6601 419.97C62.4301 423.39 62.1601 427.33 60.3501 429.96C58.6201 432.47 55.0401 434.39 51.9501 435.03C50.0301 435.43 47.5101 432.98 45.2601 431.8C45.4501 431.31 45.6401 430.83 45.8301 430.34C46.4101 430.2 46.9801 429.98 47.5601 429.94C51.0101 429.66 52.7801 427.81 52.3901 424.36C51.9501 420.54 49.4201 418.91 45.7701 419.11C40.6701 419.4 37.2301 424.48 38.3501 430.04C39.4301 435.42 42.8101 439.01 47.9001 440.63C53.7501 442.49 59.7101 441.62 63.2501 436.55C66.0501 432.54 68.1301 427.37 68.6201 422.52C69.8901 409.94 69.9501 397.24 70.8001 384.62C71.3501 376.49 76.6801 372.06 82.9901 373.91C83.4101 374.03 83.7401 374.46 84.4901 375.03C80.4101 376.44 78.4501 378.84 80.6401 382.83C82.5001 386.21 85.9501 386.25 91.6201 383.12V402.23C83.2101 404.5 85.8501 412.44 82.2601 417.53C85.0801 418.2 87.1501 418.69 89.1301 419.15C90.2101 430.26 91.2901 441.32 92.3701 452.43C89.5201 454.04 83.9101 451.51 83.8601 457.05C83.8001 463.33 90.0401 460.29 93.4101 462.58C94.6101 472.67 95.8501 483.14 97.0901 493.62C97.7101 493.6 98.3201 493.57 98.9401 493.55C102.11 483.42 97.8301 473.21 97.8501 463.04H109.51C110.42 473.83 111.31 484.28 112.19 494.72C113.02 494.69 113.86 494.66 114.69 494.63C114.69 489.52 114.8 484.4 114.66 479.3C114.51 474.16 114.11 469.02 113.8 463.5H126.42V499.11C127.09 499.14 127.76 499.18 128.42 499.21C128.95 493.36 129.58 487.51 129.99 481.64C130.41 475.67 130.64 469.69 130.97 463.23C134.95 462.87 138.86 462.52 143.31 462.12C142.31 473.59 141.33 484.91 140.29 496.78C144.49 494.05 144.72 493.07 145.87 479.74C146.38 473.78 147.15 467.85 147.78 462.11C150.95 460.41 156.37 462.97 156.55 457.3C156.71 452.41 152.57 452.91 148.72 452.74C149.76 441.67 150.8 430.68 151.86 419.41C153.6 419.09 155.34 418.76 157.75 418.31C156.27 413.26 154.86 408.43 153.4 403.43C151.95 403.51 150.68 403.58 148.62 403.69C144.75 331.76 140.9 260.03 137.01 187.68C163.63 192.13 188.15 198.49 204.44 220.9C216.93 238.08 219.19 257.21 213.16 277.46C211.12 284.3 209.03 291.15 207.51 298.12C205.8 305.97 208.05 312.91 214.13 318.92C213.39 319.17 212.88 319.51 212.37 319.49C194.51 318.86 184.8 333.13 183.85 348.6C182.73 366.76 187.16 383.98 194.74 400.33C199.42 410.41 207.94 415.4 219.02 415.94C221.96 416.08 224.92 415.96 228.85 415.96C220.48 426.97 223.88 437.35 228.16 447.71C232.6 458.46 238.32 468.86 241.29 480C248.79 508.12 239.21 531.14 217.15 549.17C199.08 563.94 177.44 570.27 154.84 573.84M198.72 430.91C193.3 437.07 186.66 436.71 183.3 430.22C181.76 427.24 181.06 423.6 180.85 420.2C180.23 410.39 180.15 400.55 179.67 390.74C179.32 383.6 177.45 376.92 172.12 371.73C166.97 366.72 158.77 366.35 153.45 370.8C149.1 374.44 148.64 381.29 152.64 384.39C155.52 386.62 158.61 386.67 161.17 383.93C163.61 381.32 162.75 378.78 160.27 376.58C159.76 376.13 159.37 375.55 158.8 374.87C159.71 374.42 160.12 374.07 160.58 374.01C167.35 373.23 171.89 377.68 172.62 386.75C173.55 398.37 173.73 410.04 174.69 421.66C175.04 425.86 175.96 430.35 177.91 434.01C182.46 442.57 193.88 444.21 201.07 437.89C205.88 433.67 206.72 425.15 202.07 421.51C200.1 419.97 196.54 419.57 193.96 420.05C192.56 420.31 190.38 424.05 190.88 425.23C191.79 427.37 194.41 428.82 196.4 430.45C196.83 430.8 197.63 430.7 198.74 430.89L198.72 430.91Z" fill="black"/>
<path d="M99.4705 577.84C61.9605 572.77 28.1805 561.09 4.73047 528.19C20.9605 512.6 38.5605 499.93 62.1805 500.15C81.4305 500.33 93.4405 511.43 96.2305 531.81C98.2105 546.29 98.6905 560.98 99.8105 575.58C99.8605 576.2 99.6305 576.85 99.4605 577.85L99.4705 577.84Z" fill="black"/>
<path d="M114.68 79.53H123.9C124.74 163.61 125.58 247.49 126.42 331.76H112.7C113.36 247.77 114.02 163.85 114.69 79.53H114.68Z" fill="black"/>
<path d="M128.28 95.3799C132.36 174.03 136.43 252.68 140.53 331.65H130.78C129.84 252.91 128.91 174.16 127.97 95.4099C128.08 95.3999 128.18 95.3899 128.29 95.3799H128.28Z" fill="black"/>
<path d="M99.3301 331.77C102.71 257.45 106.06 183.69 109.05 117.74V331.77H99.3301Z" fill="black"/>
<path d="M111.93 340.18H126.69V406.7C123.05 406.7 118.63 406.86 114.25 406.56C113.41 406.5 112.03 404.61 112.03 403.55C111.9 382.6 111.93 361.64 111.93 340.18Z" fill="black"/>
<path d="M114.65 0H124.96V70.48H114.65V0Z" fill="black"/>
<path d="M131.56 340.17H140.98C142.18 361.51 143.38 382.68 144.6 404.34C140.38 404.9 136.37 405.43 131.57 406.06V340.17H131.56Z" fill="black"/>
<path d="M98.8195 340.22H107.9V405.4C95.5495 404.66 95.3595 404.65 95.8995 393.14C96.7195 375.56 97.8295 358 98.8295 340.22H98.8195Z" fill="black"/>
<path d="M138.64 13.3701C138.91 17.2701 139.11 20.2201 139.26 22.4801C141.72 22.9201 143.6 23.6701 145.38 23.4701C147.35 23.2501 149.95 22.7101 151 21.3401C154.36 16.9501 158.76 15.4701 164.65 17.6201C169.37 19.3501 172.22 24.3101 171.53 29.6101C170.87 34.6801 167.09 38.4101 161.91 38.8301C157.52 39.1901 153.16 39.3901 150.95 34.1901C150.55 33.2601 148.26 32.0801 147.93 32.3501C144.97 34.7701 140.99 32.0501 137.76 35.1701C134.72 38.1101 130.04 35.0101 129.98 30.5601C129.9 24.9201 129.96 19.2701 129.96 13.3801H138.64V13.3701Z" fill="black"/>
<path d="M138.64 42.4399C138.91 46.3399 139.11 49.2899 139.26 51.5499C141.72 51.9899 143.6 52.7399 145.38 52.5399C147.35 52.3199 149.95 51.7799 151 50.4099C154.36 46.0199 158.76 44.5399 164.65 46.6899C169.37 48.4199 172.22 53.3799 171.53 58.6799C170.87 63.7499 167.09 67.4799 161.91 67.8999C157.52 68.2599 153.16 68.4599 150.95 63.2599C150.55 62.3299 148.26 61.1499 147.93 61.4199C144.97 63.8399 140.99 61.1199 137.76 64.2399C134.72 67.1799 130.04 64.0799 129.98 59.6299C129.9 53.9899 129.96 48.3399 129.96 42.4499H138.64V42.4399Z" fill="black"/>
<path d="M99.0904 22.6399C99.3404 20.8999 99.7504 18.1499 100.2 15.0199C103.26 14.8199 106.32 14.6099 109.66 14.3899V35.4699C106.27 35.4199 103.09 38.2199 99.9104 34.0699C98.9204 32.7699 95.3504 33.7399 93.2904 32.8799C90.0204 31.5099 88.9204 33.3899 87.4004 35.5499C85.0204 38.9299 79.3504 40.2599 74.7904 38.4699C70.3704 36.7399 67.8604 33.2799 67.8304 28.4999C67.8004 23.6799 69.6804 19.7299 74.4004 17.7599C80.1104 15.3699 84.5304 16.9799 88.1004 21.8099C88.9804 22.9999 91.5304 23.1699 93.3604 23.3599C94.8604 23.5199 96.4204 23.0099 99.0704 22.6399H99.0904Z" fill="black"/>
<path d="M99.0904 50.6799C99.3404 48.9399 99.7504 46.1899 100.2 43.0599C103.26 42.8599 106.32 42.6499 109.66 42.4299V63.5099C106.27 63.4599 103.09 66.2599 99.9104 62.1099C98.9204 60.8099 95.3504 61.7799 93.2904 60.9199C90.0204 59.5499 88.9204 61.4299 87.4004 63.5899C85.0204 66.9699 79.3504 68.2999 74.7904 66.5099C70.3704 64.7799 67.8604 61.3199 67.8304 56.5399C67.8004 51.7199 69.6804 47.7699 74.4004 45.7999C80.1104 43.4099 84.5304 45.0199 88.1004 49.8499C88.9804 51.0399 91.5304 51.2099 93.3604 51.3999C94.8604 51.5599 96.4204 51.0499 99.0704 50.6799H99.0904Z" fill="black"/>
<path d="M112.96 423.34H127.76V452.66H112.96V423.34Z" fill="black"/>
<path d="M132.45 422.18C137.73 421.48 142 420.92 147.3 420.22C146.3 431.16 145.33 441.81 144.34 452.7H132.45V422.18Z" fill="black"/>
<path d="M93.3496 419.93C98.7096 420.66 102.98 421.23 108.17 421.93V452.6H96.7396C95.6296 441.91 94.5296 431.26 93.3496 419.92V419.93Z" fill="black"/>
</g>
<defs>
<clipPath id="clip0_164_2992">
<rect width="243.811" height="577.85" fill="white"/>
</clipPath>
</defs>
</svg>
